<svg width="1064" height="1896" viewBox="0 0 1064 1896" fill="none" xmlns="http://www.w3.org/2000/svg">
<path d="M1064 268C1064 268 709.163 0 521.959 0L816 442.5C816 442.5 452.43 42.4916 131.513 0.000244141L604.349 336.485L0 0L65.5274 123.295C65.5274 123.295 0 107.257 0 244.537C0 381.817 65.5274 482.837 272.344 632L167.164 515.523L311.568 632L204.586 508.406L350.793 632L224.199 486.992C224.199 486.992 395.364 632 470.24 632C545.115 632 439.935 462.035 229.545 321.211L883.872 632C883.872 632 1064 596.018 1064 268Z" fill="#010202"/>
<path d="M228.542 1665.33C165.192 1625.34 62.8806 1538.56 18.1702 1439.35C-1.66002 1395.34 -3.40003 1368.85 4.11004 1346.21C23.2202 1288.59 66.5306 1264 145.101 1264C327.513 1264 580.025 1546.44 601.206 1575.59L384.524 1264L685.696 1575.59L459.884 1264L612.466 1414.77C612.466 1414.77 663.156 1264 798.348 1264C933.539 1264 1064 1379.1 1064 1489.88C1064 1600.65 924.149 1531.19 924.149 1531.19L1057.46 1896L894.108 1546.22C894.108 1546.22 1048.07 1896 877.208 1896C706.347 1896 745.777 1678.65 745.777 1678.65L657.816 1896L689.616 1678.65C689.616 1678.65 684.316 1896 432.574 1896C180.832 1896 0 1776.63 0 1776.63C0 1734.23 191.442 1702.43 191.442 1702.43L0 1580L228.542 1665.33Z" fill="#010202"/>
<path d="M0 789.53C0 789.53 305.347 1057.74 662.964 1057.74C597.994 1080.4 538.615 1116.67 488.795 1164.12L468.116 1183.82L480.975 1063.59C480.975 1063.59 294.547 1097.32 148.209 1095.69L244.148 986.67C244.148 986.67 0.0099999 1042.03 0.0099999 1128.21L553.085 1264L949.831 900.57L714.063 1264C714.063 1264 1064 1237.16 1064 1017.65C1064 798.14 954.711 759.11 954.711 759.11L1064 816.58L933.571 632.01C933.571 632.01 484.395 632.01 671.784 975.38L396.986 632.01L561.215 908.71L346.587 632.01L501.055 910.34L292.927 632.01L436.016 907.09L201.868 632.01L99.4191 775.37C99.4191 775.37 188.848 632 115.679 632C42.5096 632 0 789.53 0 789.53Z" fill="#010202"/>
</svg>
