<svg width="1064" height="632" viewBox="0 0 1064 632" fill="none" xmlns="http://www.w3.org/2000/svg">
<path d="M715.169 250.43L832.431 220.617L1064 408.013L882.5 155.029L1064 261.504L846.5 -5.47455e-05C846.5 -5.47455e-05 789.514 292.619 784 131.5C779.975 13.898 627.501 -0.00122244 437.501 -2.41136e-05C283.501 -2.41384e-05 112.886 44.7397 -9.19675e-06 105.198C126.711 105.198 126.798 86.544 312.699 122.66C545.075 167.806 700.565 386.718 352.215 176.324C73.5361 8.00824 -2.18933e-05 250.43 -3.56696e-05 408.013C91.0941 547.743 246.608 632.002 413.409 632.002L535.625 632.002L172.672 155.029C294.659 211.246 546.363 632.002 672.645 632.002C749.603 632.002 692.761 504.814 596.847 396.654L932.511 632.002L645.37 305.371L960.001 468.916L715.169 250.43Z" fill="black"/>
</svg>
