<svg width="1172" height="696" viewBox="0 0 1172 696" fill="none" xmlns="http://www.w3.org/2000/svg">
<path d="M787.761 275.789L916.926 242.958L1172 449.329L972.077 170.727L1172 287.984L932.423 -6.02937e-05C932.423 -6.02937e-05 869.652 322.251 863.579 144.816C859.146 15.3054 691.195 -0.00134623 481.909 -2.65686e-05C312.278 -2.65992e-05 124.344 49.2702 -1.0128e-05 115.851C139.573 115.851 139.668 95.3077 344.439 135.081C600.402 184.798 771.675 425.878 387.967 194.179C81.0004 8.81918 -2.41103e-05 275.789 -3.92816e-05 449.329L12.8944 469.104C105.192 610.65 262.739 696 431.719 696L589.993 696L190.199 170.727C324.568 232.637 601.821 696 740.921 696C825.691 696 763.079 555.933 657.43 436.82L1027.16 696L710.878 336.294L1057.44 516.4L787.761 275.789Z" fill="black"/>
</svg>
