<svg width="1172" height="696" viewBox="0 0 1172 696" fill="none" xmlns="http://www.w3.org/2000/svg">
<path d="M0 107.353C0 107.353 84.9428 0 549.997 0C1015.05 0 1172 126.387 1172 126.387C1172 126.387 841.266 49.9367 631.624 49.9367C631.624 49.9367 1041.58 238.481 1172 563.351L837.768 246.874L645.516 695.965L530.319 164.419C530.319 164.419 252.569 241.852 81.4081 438.79L524.195 173.991C524.195 173.991 505.867 538.745 318.964 696L0 496.031C0 496.031 90.1173 172.847 325.96 124.034L0 196.411C0 196.411 37.716 142.541 146.017 103.842L0 107.353Z" fill="#010202"/>
</svg>
