<svg width="1172" height="696" viewBox="0 0 1172 696" fill="none" xmlns="http://www.w3.org/2000/svg">
<path d="M1172 295.139C1172 295.139 781.145 0 574.94 0L898.827 487.31C898.827 487.31 498.353 46.7946 144.862 0.000268864L665.693 370.559L0 0L72.1787 135.78C72.1787 135.78 0 118.119 0 269.301C0 420.482 72.1787 531.732 299.988 696L184.131 567.728L343.194 696L225.352 559.89L386.4 696L246.956 536.307C246.956 536.307 435.495 696 517.971 696C600.446 696 484.59 508.823 252.844 353.739L973.588 696C973.588 696 1172 656.374 1172 295.139Z" fill="#010202"/>
</svg>
