<svg width="1172" height="696" viewBox="0 0 1172 696" fill="none" xmlns="http://www.w3.org/2000/svg">
<path d="M0 223.939C0 223.939 120.841 193.121 138.697 250.071L318.537 0C318.537 0 231.04 172.5 232.826 229.451C232.826 229.451 371.45 11.2101 586.018 0L511.349 161.478L959.472 0L1172 54.9257L1042.27 215.541C1042.27 215.541 1172 403.938 1172 464.525C1172 525.112 1041.58 695.925 950.544 695.925C859.513 695.925 723.804 561.891 723.804 561.891L291.752 696L1027.33 361.722L0 696L423.853 471.948C423.853 471.948 199.227 572.989 0 277.253L522.063 449.903L0 223.939Z" fill="#010202"/>
</svg>
