<svg width="1064" height="632" viewBox="0 0 1064 632" fill="none" xmlns="http://www.w3.org/2000/svg">
<path d="M0 203.347C0 203.347 109.705 175.363 125.916 227.076L289.183 0C289.183 0 209.75 156.638 211.371 208.352C211.371 208.352 337.221 10.1793 532.017 0L464.228 146.629L871.057 0L1064 49.875L946.223 195.721C946.223 195.721 1064 366.794 1064 421.81C1064 476.826 945.594 631.932 862.951 631.932C780.309 631.932 657.105 510.223 657.105 510.223L264.867 632L932.658 328.46L0 632L384.795 428.551C384.795 428.551 180.868 520.3 0 251.758L473.955 408.533L0 203.347Z" fill="#010202"/>
</svg>
