<svg width="1064" height="1896" viewBox="0 0 1064 1896" fill="none" xmlns="http://www.w3.org/2000/svg">
<path d="M715.169 250.43L832.431 220.617L1064 408.013L882.5 155.029L1064 261.504L846.5 -5.47455e-05C846.5 -5.47455e-05 789.514 292.619 784 131.5C779.975 13.898 627.501 -0.00122244 437.501 -2.41136e-05C283.501 -2.41384e-05 112.886 44.7397 -9.19675e-06 105.198C126.711 105.198 126.798 86.544 312.699 122.66C545.075 167.806 700.565 386.718 352.215 176.324C73.5361 8.00824 -2.18933e-05 250.43 -3.56696e-05 408.013C91.0941 547.743 246.608 632.002 413.409 632.002L535.625 632.002L172.672 155.029C294.659 211.246 546.363 632.002 672.645 632.002C749.603 632.002 692.761 504.814 596.847 396.654L932.511 632.002L645.37 305.371L960.001 468.916L715.169 250.43Z" fill="black"/>
<path d="M0 1560.62C0 1560.62 26.4651 1264 128.408 1264C128.408 1264 157.571 1524.48 86.6013 1611.87C86.6013 1611.87 497.86 1264 705.303 1264L250.379 1579.99C250.379 1579.99 388.681 1582.74 388.681 1697.44L371.981 1518.31C371.981 1518.31 836.909 1179.84 1063.4 1406.46L419.484 1716.83L1063.4 1455.4C1063.4 1455.4 1077.63 1729.42 967.236 1762.98C856.848 1796.53 553.629 1695.87 553.629 1695.87L964.448 1896L492.153 1735.01L861.046 1896L86.9211 1679.09L455.814 1888.81C455.814 1888.8 0 1955.25 0 1560.62Z" fill="#010202"/>
<path d="M273.49 632C273.49 632 0 645.25 0 804.555C0 963.86 107.82 1138.81 107.82 1138.81L91.0898 820.724C91.0898 820.724 129.65 1110.32 208.15 1193.41L216.72 782.905L257.33 1213.22C257.33 1213.22 298.89 1263.99 423.57 1263.99C548.25 1263.99 467.37 1066.71 310.44 859.983C153.51 653.259 774.52 1141.65 774.52 1141.65L342.76 862.293C342.76 862.293 603.66 1264 797.61 1264C991.56 1264 916.23 1096.46 698.33 1023.92C698.33 1023.92 981.76 1111.65 1064 1053.94L709.87 899.252L1064 1015.4C1064 1015.4 960.47 632.04 663.62 632.04C366.77 632.04 644.45 963.91 644.45 963.91C644.45 963.91 433.14 632 273.49 632Z" fill="#010202"/>
</svg>
