<svg width="1064" height="1896" viewBox="0 0 1064 1896" fill="none" xmlns="http://www.w3.org/2000/svg">
<path d="M0 203.347C0 203.347 109.705 175.363 125.916 227.076L289.183 0C289.183 0 209.75 156.638 211.371 208.352C211.371 208.352 337.221 10.1793 532.017 0L464.228 146.629L871.057 0L1064 49.875L946.223 195.721C946.223 195.721 1064 366.794 1064 421.81C1064 476.826 945.594 631.932 862.951 631.932C780.309 631.932 657.105 510.223 657.105 510.223L264.867 632L932.658 328.46L0 632L384.795 428.551C384.795 428.551 180.868 520.3 0 251.758L473.955 408.533L0 203.347Z" fill="#010202"/>
<path d="M0 1600.7C0 1600.7 272.797 1264 521.425 1264C521.425 1264 502 1295 442.5 1377L1063.99 1264L477.875 1497.27C477.875 1497.27 1064 1358.98 1064 1620.67C1064 1813.85 1015.06 1896 969.691 1896C924.321 1896 897.041 1580 897.041 1580C897.041 1580 911 1896 865 1896C814.19 1896 837 1580 837 1580C837 1580 809 1896 748.283 1896C670.367 1896 925.321 1502.47 405.955 1579.63C426.656 1576.68 572.427 1558.61 668.434 1620.67C726.793 1658.39 728.853 1719.04 706.543 1782.19C670.754 1883.51 367.177 1896 367.177 1896L599.464 1682.38L276.427 1896L456.096 1689.64L191.138 1896C191.138 1896 259.943 1770.34 323.986 1691.56C244.308 1751.82 114.874 1831.17 60.4694 1793.08C-17.5967 1738.43 73.5844 1619.31 191.874 1559.37C122.635 1588.63 15.4006 1638.1 0 1669.68C0 1669.68 38.6896 1588.01 127.619 1526.32L0 1600.7Z" fill="black"/>
<path d="M0 1264C0 1264 68.3 1111.12 174.82 1057.87L0 836.656L400.13 1154.13L0 676.902L387.84 779.318C387.84 779.318 -13.63 632.034 242.41 632.034C498.45 632.034 527.34 723.42 460.77 789.988C394.2 856.555 306.82 948.012 306.82 948.012C306.82 948.012 695.08 632.024 766.77 632.024L582.32 1070.1L803.41 632.024C803.41 632.024 1064 624.204 1064 892.484C1064 1160.76 917.68 1264 792.23 1264C666.78 1264 1008.35 998.06 1008.35 998.06L594.74 1264L937.55 873.855C937.55 873.855 578.59 1264 379.86 1264C181.13 1264 205.97 1163.25 205.97 1163.25L118.57 1264L166.1 1175.4L56.3 1264L148.83 1155.79L0 1264Z" fill="#010202"/>
</svg>
