<svg width="1064" height="632" viewBox="0 0 1064 632" fill="none" xmlns="http://www.w3.org/2000/svg">
<path d="M1064 268C1064 268 709.163 0 521.959 0L816 442.5C816 442.5 452.43 42.4916 131.513 0.000244141L604.349 336.485L0 0L65.5274 123.295C65.5274 123.295 0 107.257 0 244.537C0 381.817 65.5274 482.837 272.344 632L167.164 515.523L311.568 632L204.586 508.406L350.793 632L224.199 486.992C224.199 486.992 395.364 632 470.24 632C545.115 632 439.935 462.035 229.545 321.211L883.872 632C883.872 632 1064 596.018 1064 268Z" fill="#010202"/>
</svg>
