<svg width="1172" height="696" viewBox="0 0 1172 696" fill="none" xmlns="http://www.w3.org/2000/svg">
<path d="M0 696C0 696 85.8174 525.14 340.682 446.178C340.682 446.178 63.3336 388.062 0 319.523C0 319.523 153.888 41.0184 495.628 0L573.829 379.139L623.06 40.9059L665.039 374.639C665.039 374.639 711.392 58.903 698.346 0C698.346 0 1025.84 84.4364 1171.96 348.019C1171.96 348.019 938.708 264.407 801.145 233.137L1172 696C1172 696 889.513 580.256 756.287 310.6C756.287 310.6 751.95 696 265.396 696C265.396 696 499.782 464.7 504.337 454.652L478.282 433.205L0 696Z" fill="#010202"/>
</svg>
