<svg width="1172" height="696" viewBox="0 0 1172 696" fill="none" xmlns="http://www.w3.org/2000/svg">
<path d="M0 696C0 696 327.306 221.805 532.268 28.782C532.268 28.782 120.867 312.96 0 518.5C0 518.5 195.27 96.3524 513.16 0.0353587L615.641 28.8173L155.302 598.905C155.302 598.905 758.09 121.881 937.002 60.923C1115.95 0 1172 0 1172 0C1172 0 1108.97 447.004 488.829 389.794C488.829 389.794 964.014 441.63 1172 532.784C1172 532.784 766.785 440.003 478.416 423.844C478.416 423.844 1329.6 696 1049.93 696C770.256 696 337.719 502.411 337.719 502.411L254.346 696C254.346 696 151.212 664.778 85.9504 611.952L0 696Z" fill="#010202"/>
</svg>
