<svg width="976" height="4672" viewBox="0 0 976 4672" fill="none" xmlns="http://www.w3.org/2000/svg">
<path d="M0.0328874 0C0.0328874 0 209.695 21.036 242.472 143.761L380.136 0L282.621 191.329L453.239 0L327.075 213.598C327.075 213.598 503.442 0 728.534 0C953.625 0 976 79.8822 976 79.8822C976 79.8822 962.234 90.2675 890.543 60.5756L976 116.997L881.639 80.9718L976 147.336L876.744 103.717C876.744 103.717 976 188.094 976 223.268C976 258.442 922.347 267.193 856.669 199.127C856.669 199.127 972.254 545.317 976 583.827C976 583.827 935.949 580.593 931.218 507.01C931.218 507.01 926.487 583.827 743.023 583.827C559.559 583.827 430.569 454.266 430.569 454.266L579.699 516.816L445.945 428.49L596.258 493.492L456.59 384.326L608.086 461.587L471.966 341.389C471.966 341.389 611.634 326.679 886.206 511.879L487.967 215.062C487.967 215.062 478.341 434.38 386.838 512.935C295.336 591.489 217.798 583.793 185.172 583.793C152.547 583.793 0 544.397 0 414.325C0 284.252 173.969 303.321 173.969 303.321L0 146.825L374.945 370.979C374.978 371.013 38.2765 106.918 0.0328874 0Z" fill="#010202"/>
<path d="M0 1355.9C0 1355.9 100.632 1330.04 115.502 1377.83L265.266 1168C265.266 1168 192.402 1312.74 193.889 1360.53C193.889 1360.53 309.33 1177.41 488.015 1168L425.834 1303.49L799.014 1168L976 1214.09L867.964 1348.86C867.964 1348.86 976 1506.94 976 1557.77C976 1608.61 867.387 1751.94 791.579 1751.94C715.772 1751.94 602.758 1639.47 602.758 1639.47L242.961 1752L855.521 1471.51L0 1752L352.97 1564C352.97 1564 165.909 1648.78 0 1400.64L434.756 1545.5L0 1355.9Z" fill="#010202"/>
<path d="M0 3504C0 3504 71.4657 3360.63 283.708 3294.38C283.708 3294.38 52.742 3245.62 0 3188.11C0 3188.11 128.153 2954.42 412.741 2920L477.864 3238.13L518.862 2954.32L553.821 3234.35C553.821 3234.35 592.422 2969.42 581.558 2920C581.558 2920 854.281 2990.85 975.97 3212.02C975.97 3212.02 781.723 3141.86 667.165 3115.62L976 3504C976 3504 740.755 3406.88 629.809 3180.62C629.809 3180.62 626.197 3504 221.013 3504C221.013 3504 416.201 3309.92 419.994 3301.49L398.296 3283.49L0 3504Z" fill="#010202"/>
<path d="M0 2920C0 2920 272.569 2522.11 443.254 2360.15C443.254 2360.15 100.654 2598.6 0 2771.06C0 2771.06 162.614 2416.85 427.341 2336.03L512.684 2360.18L129.33 2838.53C129.33 2838.53 631.31 2438.27 780.302 2387.12C929.322 2336 976 2336 976 2336C976 2336 923.512 2711.07 407.079 2663.07C407.079 2663.07 802.797 2706.56 976 2783.05C976 2783.05 638.551 2705.2 398.407 2691.64C398.407 2691.64 1107.25 2920 874.345 2920C641.442 2920 281.241 2757.56 281.241 2757.56L211.81 2920C211.81 2920 125.924 2893.8 71.5764 2849.48L0 2920Z" fill="#010202"/>
<path d="M656.019 815.41L763.583 787.861L976 961.023L809.511 727.254L976 825.642L776.489 584C776.489 584 724.216 854.394 719.158 705.512C715.466 596.842 575.603 583.999 401.317 584C260.054 584 103.549 625.342 -8.49823e-06 681.208C116.231 681.208 116.311 663.971 286.836 697.344C499.993 739.06 642.623 941.346 323.085 746.932C67.4542 591.4 -2.02305e-05 815.409 -3.29604e-05 961.023C83.5195 1090.08 226.763 1168 380.486 1168L491.325 1168L158.391 727.254C270.289 779.201 501.175 1168 617.013 1168C687.606 1168 635.465 1050.47 547.484 950.527L855.386 1168L591.994 866.177L880.603 1017.3L656.019 815.41Z" fill="black"/>
<path d="M0 1842.08C0 1842.08 70.7374 1752 458.018 1752C845.298 1752 976 1858.05 976 1858.05C976 1858.05 700.576 1793.9 525.994 1793.9C525.994 1793.9 867.39 1952.1 976 2224.7L697.663 1959.15L537.562 2335.97L441.631 1889.96C441.631 1889.96 210.331 1954.93 67.7938 2120.18L436.531 1897.99C436.531 1897.99 421.268 2204.05 265.622 2336L0 2168.21C0 2168.21 75.0465 1897.03 271.448 1856.07L0 1916.8C0 1916.8 31.4085 1871.6 121.598 1839.13L0 1842.08Z" fill="#010202"/>
<path d="M976 4445.91C976 4445.91 852.992 4088.01 494.701 4088.01L528.879 4201.85L223.698 4088.01L435.958 4194.61L64.2191 4088L240.264 4224.75L0.0367226 4088.01C0.0367226 4088.01 -3.83424 4203.24 78.382 4247.32C78.382 4247.32 -4.59599e-06 4228.62 -4.59599e-06 4296.75C-4.59599e-06 4364.88 116.835 4299.79 116.835 4299.79L0.0275408 4442.37C0.0275408 4442.37 43.8921 4672 189.777 4672C189.777 4672 98.2687 4468.6 126.117 4380C126.117 4380 201.711 4672 428.482 4672C655.253 4672 432.463 4590.67 432.463 4590.67L879.694 4672L153.975 4338.16L976 4671.99L264.765 4279.89L976 4615.99C976 4615.99 897.315 4481.55 813.641 4481.55L976 4484.41L292.118 4215.97L976 4445.91Z" fill="#010202"/>
<path d="M0 3504C0 3504 456.005 3509.54 797.082 3853.13L580.894 3504L976 3784.24L743.292 3725.13L976 3914.5C976 3914.5 807.869 4088 687.612 4088C687.612 4088 589.627 3969.68 589.627 3817.11C589.627 3817.11 518.362 4088 344.655 4088C170.947 4088 0 3911 0 3911L540.634 3796.01L0 3861.99L333.519 3754.3C333.519 3754.31 0 3783.16 0 3504Z" fill="#010202"/>
</svg>
