<svg width="976" height="584" viewBox="0 0 976 584" fill="none" xmlns="http://www.w3.org/2000/svg">
<path d="M0.0328874 0C0.0328874 0 209.695 21.036 242.472 143.761L380.136 0L282.621 191.329L453.239 0L327.075 213.598C327.075 213.598 503.442 0 728.534 0C953.625 0 976 79.8822 976 79.8822C976 79.8822 962.234 90.2675 890.543 60.5756L976 116.997L881.639 80.9718L976 147.336L876.744 103.717C876.744 103.717 976 188.094 976 223.268C976 258.442 922.347 267.193 856.669 199.127C856.669 199.127 972.254 545.317 976 583.827C976 583.827 935.949 580.593 931.218 507.01C931.218 507.01 926.487 583.827 743.023 583.827C559.559 583.827 430.569 454.266 430.569 454.266L579.699 516.816L445.945 428.49L596.258 493.492L456.59 384.326L608.086 461.587L471.966 341.389C471.966 341.389 611.634 326.679 886.206 511.879L487.967 215.062C487.967 215.062 478.341 434.38 386.838 512.935C295.336 591.489 217.798 583.793 185.172 583.793C152.547 583.793 0 544.397 0 414.325C0 284.252 173.969 303.321 173.969 303.321L0 146.825L374.945 370.979C374.978 371.013 38.2765 106.918 0.0328874 0Z" fill="#010202"/>
</svg>
